<svg width="771" height="223" viewBox="0 0 771 223" fill="none" xmlns="http://www.w3.org/2000/svg">
<path d="M270.5 74H350.5V90H270.5V74Z" fill="#FFFCFC"></path>
<path d="M320.5 40H330.5V50H320.5V40Z" fill="#FFFCFC"></path>
<path d="M330.5 40H340.5V50H330.5V40Z" fill="#FFFCFC"></path>
<path d="M340.5 40H350.5V50H340.5V40Z" fill="#FFFCFC"></path>
<path d="M350.5 30H360.5V40H350.5V30Z" fill="#FFFCFC"></path>
<path d="M350.5 40H360.5V50H350.5V40Z" fill="#860E10"></path>
<path d="M350.5 50H360.5V60H350.5V50Z" fill="#FFFCFC"></path>
<path d="M360.5 20H370.5V30H360.5V20Z" fill="#FFFCFC"></path>
<path d="M360.5 30H370.5V40H360.5V30Z" fill="#860E10"></path>
<path d="M360.5 40H370.5V50H360.5V40Z" fill="#C71D20"></path>
<path d="M360.5 50H370.5V60H360.5V50Z" fill="#860E10"></path>
<path d="M360.5 60H370.5V70H360.5V60Z" fill="#FFFCFC"></path>
<path d="M370.5 10H380.5V20H370.5V10Z" fill="#FFFCFC"></path>
<path d="M370.5 20H380.5V30H370.5V20Z" fill="#860E10"></path>
<path d="M370.5 30H380.5V40H370.5V30Z" fill="#C71D20"></path>
<path d="M370.5 40H380.5V50H370.5V40Z" fill="#F99193"></path>
<path d="M370.5 50H380.5V60H370.5V50Z" fill="#C71D20"></path>
<path d="M370.5 60H380.5V70H370.5V60Z" fill="#860E10"></path>
<path d="M370.5 70H380.5V80H370.5V70Z" fill="#FFFCFC"></path>
<path d="M380.5 0H390.5V10H380.5V0Z" fill="#FFFCFC"></path>
<path d="M380.5 10H390.5V20H380.5V10Z" fill="#860E10"></path>
<path d="M380.5 20H390.5V30H380.5V20Z" fill="#C71D20"></path>
<path d="M380.5 30H390.5V40H380.5V30Z" fill="#F99193"></path>
<path d="M380.5 40H390.5V50H380.5V40Z" fill="#FFE8E9"></path>
<path d="M380.5 50H390.5V60H380.5V50Z" fill="#F99193"></path>
<path d="M380.5 60H390.5V70H380.5V60Z" fill="#C71D20"></path>
<path d="M380.5 70H390.5V80H380.5V70Z" fill="#860E10"></path>
<path d="M380.5 80H390.5V90H380.5V80Z" fill="#FFFCFC"></path>
<path d="M390.5 10H400.5V20H390.5V10Z" fill="#FFFCFC"></path>
<path d="M390.5 20H400.5V30H390.5V20Z" fill="#860E10"></path>
<path d="M390.5 30H400.5V40H390.5V30Z" fill="#C71D20"></path>
<path d="M390.5 40H400.5V50H390.5V40Z" fill="#F99193"></path>
<path d="M390.5 50H400.5V60H390.5V50Z" fill="#C71D20"></path>
<path d="M390.5 60H400.5V70H390.5V60Z" fill="#860E10"></path>
<path d="M390.5 70H400.5V80H390.5V70Z" fill="#FFFCFC"></path>
<path d="M400.5 20H410.5V30H400.5V20Z" fill="#FFFCFC"></path>
<path d="M400.5 30H410.5V40H400.5V30Z" fill="#860E10"></path>
<path d="M400.5 40H410.5V50H400.5V40Z" fill="#C71D20"></path>
<path d="M400.5 50H410.5V60H400.5V50Z" fill="#860E10"></path>
<path d="M400.5 60H410.5V70H400.5V60Z" fill="#FFFCFC"></path>
<path d="M410.5 30H420.5V40H410.5V30Z" fill="#FFFCFC"></path>
<path d="M410.5 40H420.5V50H410.5V40Z" fill="#860E10"></path>
<path d="M410.5 50H420.5V60H410.5V50Z" fill="#FFFCFC"></path>
<path d="M420.5 40H430.5V50H420.5V40Z" fill="#FFFCFC"></path>
<path d="M430.5 40H440.5V50H430.5V40Z" fill="#FFFCFC"></path>
<path d="M440.5 40H450.5V50H440.5V40Z" fill="#FFFCFC"></path>
<path d="M420.5 74H500.5V90H420.5V74Z" fill="#FFFCFC"></path>
<path d="M92 110H175V131H92V110Z" fill="#FFFCFC"></path>
<path d="M146 131H175V215H146V131Z" fill="#FFFCFC"></path>
<path d="M81 121H102V142H81V121Z" fill="#FFFCFC"></path>
<path d="M67 132H88V153H67V132Z" fill="#FFFCFC"></path>
<path d="M56 140H77V164H56V140Z" fill="#FFFCFC"></path>
<path d="M45 151H66V172H45V151Z" fill="#FFFCFC"></path>
<path d="M146 202H167V223H146V202Z" fill="#FFFCFC"></path>
<path d="M34 162H55V183H34V162Z" fill="#FFFCFC"></path>
<path d="M24 172H45V193H24V172Z" fill="#FFFCFC"></path>
<path d="M14 185H35V206H14V185Z" fill="#FFFCFC"></path>
<path d="M0 200H26V216H0V200Z" fill="#FFFCFC"></path>
<path d="M29 172H55V206H29V172Z" fill="#FFFCFC"></path>
<path d="M55 164H175V189H55V164Z" fill="#FFFCFC"></path>
<path d="M187 194H280V215H187V194Z" fill="#FFFCFC"></path>
<path d="M187 110H216V215H187V110Z" fill="#FFFCFC"></path>
<path d="M260 110H369V131H260V110Z" fill="#FFFCFC"></path>
<path d="M305 110H334V215H305V110Z" fill="#FFFCFC"></path>
<path d="M381 110H474V131H381V110Z" fill="#FFFCFC"></path>
<path d="M381 157H474V178H381V157Z" fill="#FFFCFC"></path>
<path d="M381 194H474V215H381V194Z" fill="#FFFCFC"></path>
<path d="M381 110H410V215H381V110Z" fill="#FFFCFC"></path>
<path d="M486 110H584V131H486V110Z" fill="#FFFCFC"></path>
<path d="M486 110H515V215H486V110Z" fill="#FFFCFC"></path>
<path d="M547 146H568V167H547V146Z" fill="#FFFCFC"></path>
<path d="M515 157H547V178H515V157Z" fill="#FFFCFC"></path>
<path d="M559 110H584V151H559V110Z" fill="#FFFCFC"></path>
<path d="M547 176H568V197H547V176Z" fill="#FFFCFC"></path>
<path d="M526 167H547V188H526V167Z" fill="#FFFCFC"></path>
<path d="M563 189H584V215H563V189Z" fill="#FFFCFC"></path>
<path d="M679 110H596V131H679V110Z" fill="#FFFCFC"></path>
<path d="M625 131H596V215H625V131Z" fill="#FFFCFC"></path>
<path d="M690 121H669V142H690V121Z" fill="#FFFCFC"></path>
<path d="M704 132H683V153H704V132Z" fill="#FFFCFC"></path>
<path d="M715 140H694V164H715V140Z" fill="#FFFCFC"></path>
<path d="M726 151H705V172H726V151Z" fill="#FFFCFC"></path>
<path d="M625 202H604V223H625V202Z" fill="#FFFCFC"></path>
<path d="M737 162H716V183H737V162Z" fill="#FFFCFC"></path>
<path d="M747 172H726V193H747V172Z" fill="#FFFCFC"></path>
<path d="M757 185H736V206H757V185Z" fill="#FFFCFC"></path>
<path d="M771 200H745V216H771V200Z" fill="#FFFCFC"></path>
<path d="M742 172H716V206H742V172Z" fill="#FFFCFC"></path>
<path d="M716 164H596V189H716V164Z" fill="#FFFCFC"></path>
</svg>